<mxfile host="app.diagrams.net" agent="Mozilla/5.0 (Windows NT 10.0; Win64; x64; rv:133.0) Gecko/20100101 Firefox/133.0" version="24.7.7">
  <diagram name="Page-1" id="-ZG40PCuiX6xcK4RwG6e">
    <mxGraphModel dx="667" dy="335" grid="1" gridSize="10" guides="1" tooltips="1" connect="1" arrows="1" fold="1" page="1" pageScale="1" pageWidth="850" pageHeight="1100" math="0" shadow="0">
      <root>
        <mxCell id="0" />
        <mxCell id="1" parent="0" />
        <mxCell id="gvXezEnUDrQoyfgamXtg-1" value="Message Key" style="rounded=1;whiteSpace=wrap;html=1;" vertex="1" parent="1">
          <mxGeometry x="510" y="630" width="150" height="40" as="geometry" />
        </mxCell>
        <mxCell id="gvXezEnUDrQoyfgamXtg-16" style="edgeStyle=orthogonalEdgeStyle;rounded=0;orthogonalLoop=1;jettySize=auto;html=1;exitX=1;exitY=0.5;exitDx=0;exitDy=0;entryX=0;entryY=0.5;entryDx=0;entryDy=0;" edge="1" parent="1" source="gvXezEnUDrQoyfgamXtg-2" target="gvXezEnUDrQoyfgamXtg-15">
          <mxGeometry relative="1" as="geometry" />
        </mxCell>
        <mxCell id="gvXezEnUDrQoyfgamXtg-2" value="Shared Secret" style="rounded=1;whiteSpace=wrap;html=1;" vertex="1" parent="1">
          <mxGeometry x="120" y="90" width="120" height="40" as="geometry" />
        </mxCell>
        <mxCell id="gvXezEnUDrQoyfgamXtg-22" style="edgeStyle=orthogonalEdgeStyle;rounded=0;orthogonalLoop=1;jettySize=auto;html=1;entryX=0.5;entryY=0;entryDx=0;entryDy=0;" edge="1" parent="1" source="gvXezEnUDrQoyfgamXtg-7" target="gvXezEnUDrQoyfgamXtg-20">
          <mxGeometry relative="1" as="geometry" />
        </mxCell>
        <mxCell id="gvXezEnUDrQoyfgamXtg-7" value="Double Ratchet Algorithm" style="whiteSpace=wrap;html=1;aspect=fixed;" vertex="1" parent="1">
          <mxGeometry x="340" y="230" width="120" height="120" as="geometry" />
        </mxCell>
        <mxCell id="gvXezEnUDrQoyfgamXtg-10" style="edgeStyle=orthogonalEdgeStyle;rounded=0;orthogonalLoop=1;jettySize=auto;html=1;exitX=1;exitY=0.5;exitDx=0;exitDy=0;entryX=0;entryY=0.5;entryDx=0;entryDy=0;" edge="1" parent="1" source="gvXezEnUDrQoyfgamXtg-9" target="gvXezEnUDrQoyfgamXtg-7">
          <mxGeometry relative="1" as="geometry" />
        </mxCell>
        <mxCell id="gvXezEnUDrQoyfgamXtg-9" value="Salt" style="rounded=1;whiteSpace=wrap;html=1;" vertex="1" parent="1">
          <mxGeometry x="120" y="270" width="120" height="40" as="geometry" />
        </mxCell>
        <mxCell id="gvXezEnUDrQoyfgamXtg-15" value="Root Key" style="rounded=1;whiteSpace=wrap;html=1;" vertex="1" parent="1">
          <mxGeometry x="320" y="90" width="150" height="40" as="geometry" />
        </mxCell>
        <mxCell id="gvXezEnUDrQoyfgamXtg-17" style="edgeStyle=orthogonalEdgeStyle;rounded=0;orthogonalLoop=1;jettySize=auto;html=1;exitX=0.5;exitY=1;exitDx=0;exitDy=0;entryX=0.458;entryY=0.014;entryDx=0;entryDy=0;entryPerimeter=0;" edge="1" parent="1" source="gvXezEnUDrQoyfgamXtg-15" target="gvXezEnUDrQoyfgamXtg-7">
          <mxGeometry relative="1" as="geometry" />
        </mxCell>
        <mxCell id="gvXezEnUDrQoyfgamXtg-24" style="edgeStyle=orthogonalEdgeStyle;rounded=0;orthogonalLoop=1;jettySize=auto;html=1;exitX=0.5;exitY=1;exitDx=0;exitDy=0;entryX=0.5;entryY=0;entryDx=0;entryDy=0;" edge="1" parent="1" source="gvXezEnUDrQoyfgamXtg-19" target="gvXezEnUDrQoyfgamXtg-23">
          <mxGeometry relative="1" as="geometry" />
        </mxCell>
        <mxCell id="gvXezEnUDrQoyfgamXtg-19" value="Root Key" style="rounded=1;whiteSpace=wrap;html=1;" vertex="1" parent="1">
          <mxGeometry x="320" y="390" width="150" height="40" as="geometry" />
        </mxCell>
        <mxCell id="gvXezEnUDrQoyfgamXtg-20" value="Message Key" style="rounded=1;whiteSpace=wrap;html=1;" vertex="1" parent="1">
          <mxGeometry x="510" y="390" width="150" height="40" as="geometry" />
        </mxCell>
        <mxCell id="gvXezEnUDrQoyfgamXtg-21" style="edgeStyle=orthogonalEdgeStyle;rounded=0;orthogonalLoop=1;jettySize=auto;html=1;entryX=0.531;entryY=0.04;entryDx=0;entryDy=0;entryPerimeter=0;" edge="1" parent="1" source="gvXezEnUDrQoyfgamXtg-7" target="gvXezEnUDrQoyfgamXtg-19">
          <mxGeometry relative="1" as="geometry" />
        </mxCell>
        <mxCell id="gvXezEnUDrQoyfgamXtg-27" style="edgeStyle=orthogonalEdgeStyle;rounded=0;orthogonalLoop=1;jettySize=auto;html=1;exitX=1;exitY=0.5;exitDx=0;exitDy=0;entryX=0.5;entryY=0;entryDx=0;entryDy=0;" edge="1" parent="1" source="gvXezEnUDrQoyfgamXtg-23" target="gvXezEnUDrQoyfgamXtg-1">
          <mxGeometry relative="1" as="geometry" />
        </mxCell>
        <mxCell id="gvXezEnUDrQoyfgamXtg-23" value="Double Ratchet Algorithm" style="whiteSpace=wrap;html=1;aspect=fixed;" vertex="1" parent="1">
          <mxGeometry x="340" y="480" width="110" height="110" as="geometry" />
        </mxCell>
        <mxCell id="gvXezEnUDrQoyfgamXtg-25" value="Root Key" style="rounded=1;whiteSpace=wrap;html=1;" vertex="1" parent="1">
          <mxGeometry x="320" y="630" width="150" height="40" as="geometry" />
        </mxCell>
        <mxCell id="gvXezEnUDrQoyfgamXtg-26" style="edgeStyle=orthogonalEdgeStyle;rounded=0;orthogonalLoop=1;jettySize=auto;html=1;exitX=0.5;exitY=1;exitDx=0;exitDy=0;entryX=0.477;entryY=-0.056;entryDx=0;entryDy=0;entryPerimeter=0;" edge="1" parent="1" source="gvXezEnUDrQoyfgamXtg-23" target="gvXezEnUDrQoyfgamXtg-25">
          <mxGeometry relative="1" as="geometry" />
        </mxCell>
        <mxCell id="gvXezEnUDrQoyfgamXtg-29" style="edgeStyle=orthogonalEdgeStyle;rounded=0;orthogonalLoop=1;jettySize=auto;html=1;exitX=1;exitY=0.5;exitDx=0;exitDy=0;entryX=0;entryY=0.5;entryDx=0;entryDy=0;" edge="1" parent="1" source="gvXezEnUDrQoyfgamXtg-28" target="gvXezEnUDrQoyfgamXtg-19">
          <mxGeometry relative="1" as="geometry" />
        </mxCell>
        <mxCell id="gvXezEnUDrQoyfgamXtg-28" value="Salt" style="rounded=1;whiteSpace=wrap;html=1;" vertex="1" parent="1">
          <mxGeometry x="120" y="390" width="120" height="40" as="geometry" />
        </mxCell>
      </root>
    </mxGraphModel>
  </diagram>
</mxfile>
